<svg id="js-logo" data-name="Ebene 1" xmlns="http://www.w3.org/2000/svg" viewBox="0 0 451.79 456.9"><path d="M943.42,312.6c-4.95.16-31.5.74-59,1.28-58.4,1.15-62.86,1.69-78.9,9.53-11.12,5.43-20.79,18.09-23.68,31-3.57,15.93-3.65,154.4-.12,204a202.93,202.93,0,0,0,5.83,38.5c3.5,14.9,9,29.88,13.86,38a45.18,45.18,0,0,1,2.68,5c1.12,3,12.73,17.65,18.43,23.32a155.91,155.91,0,0,0,16.4,13.28c5.8,4.08,11,7.75,11.5,8.19,4.92,3.93,31,19.67,54.7,33,2,1.14,6.8,3.77,10.5,5.79l11.3,6.14c5.06,2.75,26.6,13.89,56.3,29.11,10.9,5.58,20.61,10.15,21.6,10.15,1.95,0,46-22.13,79.1-39.73,12.9-6.86,40.68-22.62,47.8-27.12,2.3-1.45,8.85-5.47,14.45-8.85s11.16-6.91,12.25-7.75,5.6-4,10-7.05a193,193,0,0,0,16.1-12.76q37.9-33.95,43.32-104.74c4.09-53.4,4.08-191.22,0-207.5a45.93,45.93,0,0,0-24.91-30.79c-8.56-4.08-17.2-6.18-31.5-7.68-8.76-.92-193.8-3.41-212-2.85l-16,.52Zm167,13.26c33.6.62,62.8,1.52,65,2s6.5,1.35,9.5,2c11.5,2.33,20.83,8.88,25.33,17.79,5.69,11.22,5.77,12.7,5.82,98.3,0,52.7-.36,83.75-1.2,94.5-.69,8.8-1.18,17.12-1.1,18.5a117.82,117.82,0,0,1-1.37,13c-4.42,30.5-11.05,49.75-23.33,67.8-5.72,8.4-16.18,19.29-22.85,23.79-3.2,2.15-6,4.13-6.3,4.41-1.9,1.9-47.43,31-48.5,31a25.31,25.31,0,0,0-4.25,2.35c-2.08,1.3-7.75,4.48-12.75,7.15s-10.78,5.82-13,7.09c-17.8,10.22-74,38.41-76.6,38.41-1.21,0-8.1-3-15.3-6.65-28.3-14.36-54.71-28.1-63.6-33.09l-9-5c-8.5-4.73-18.21-10.32-21.5-12.37a43.78,43.78,0,0,0-4.5-2.51c-.83-.36-3.85-2.15-6.75-4s-5.38-3.35-5.55-3.35c-.58,0-31.9-21-36.2-24.3s-16.54-15.7-20.12-20.4c-4.06-5.33-11.48-19.3-14.39-27.1-6.06-16.24-9.25-31-10.83-50.2-2.8-33.83-3.44-51.1-3.87-103.5-.57-71.4.91-101.64,5.49-111.7,4.47-9.82,11.22-15.5,22.22-18.7,2.5-.72,5.84-1.73,7.5-2.26,3-.95,35.9-2.6,61.5-3.08,46.75-.88,168.8-.77,220.5.2Z" transform="translate(-779.12 -312)"/><path d="M1020.12,385.87c-8.19,1.21-7.69-4.17-6.37,68.73.64,35.6,1.17,76.56,1.17,90.9,0,22.5.27,27.12,1.94,33.5,2.56,9.8,2.84,10.46,7.22,17,5.89,8.8,14.24,14.74,23,16.4,9,1.7,10.34-2.48,2.6-8.14-8.9-6.51-12.3-11.46-16-23.36l-2.67-8.5-1-54c-.58-29.7-1-68.27-1-85.7,0-30.3.09-31.75,1.9-32.72,2.89-1.55,25.3-1.26,35.1.45,19.4,3.39,29,9.07,35.27,20.77,2,3.71,2.23,5.6,2.23,16.2,0,11.8-.06,12.12-3.7,19.55a44,44,0,0,1-9.5,13.07c-5.2,5-17.07,12.8-22,14.53-5.7,2-10.51,4.63-11,6.05-.93,2.46,1.85,3.78,10.95,5.2,11.6,1.82,18.08,3.71,26.8,7.85,18.11,8.6,28.28,20.15,34.1,38.75,1.82,5.82,1.47,26.6-.58,34.4a84.26,84.26,0,0,1-8,19.1c-3.24,5.61-13.72,14.81-20.82,18.27-9.9,4.84-11.73,5.5-20,7.21a70.88,70.88,0,0,1-38.2-2.6,108,108,0,0,1-13.5-5.77c-12-5.8-37.73-21.19-39.16-23.41-.82-1.28,0-6.9,1.76-12,1-3,1.31-22.4,1.35-96.1,0-85-.08-92.42-1.6-93.7-1.35-1.15-10.85-1.45-51.75-1.65-27.6-.14-53.24.08-57.1.5l-7,.75-.3,4.4a30,30,0,0,0,.25,6.75l.55,2.35h50c27.5,0,50.2.4,50.51.9,1,1.7.69,171.6-.38,174.4-1.37,3.59-3.68,4.33-7.48,2.39a136.62,136.62,0,0,0-19.1-8l-9.5-2.85c-3.14-1-10.1-1.35-23-1.35-16.9,0-19.06.2-25,2.37-11.9,4.34-20.35,10.31-26.09,18.43-6.23,8.8-7.28,15.62-3.67,24,5,11.62,16.66,21,31.36,25.34,6.9,2,33.77,3.05,39.4,1.51,1.93-.52,5.7-1.46,8.4-2.09,14.1-3.25,32.15-16.31,38.25-27.66,2.42-4.51,4.35-4.34,12.85,1.11,3.9,2.5,7.67,4.8,8.5,5.19s4.6,2.53,8.5,4.83c8.7,5.14,23.86,12.47,25.8,12.47a3.3,3.3,0,0,1,2.1.7c.39.38,3.7,1.49,7.4,2.47,12,3.17,38.4,2,48.7-2.07,1.1-.44,3.8-1.37,6-2.06,19-6,35-19.48,42.71-36,5-10.76,6.81-18.4,7.49-31.5.75-14.3-1-23.26-6.74-35.1-8.54-17.55-21-29.49-39.46-37.94l-7.8-3.56,2.9-3.2a33.9,33.9,0,0,1,4-3.92c2.27-1.47,9.86-12.08,12.22-17.08,4-8.55,5.18-14.5,5.18-26.7,0-9-.43-12.68-2-16.9-4-11-11.23-18.9-22.53-24.64-7.82-4-10.6-4.79-25-7.36-10.2-1.82-40-2.5-49.3-1.13Zm-78.5,197.88c12.1,4.14,23.88,9.72,24.62,11.65.85,2.18-.19,4.4-4.74,10.1a55.78,55.78,0,0,1-16,13c-8.62,4.46-25.7,7.77-35.3,6.84-5.7-.55-6.3-.82-6.3-2.9a3.12,3.12,0,0,1,1.5-2.88c2.3-.87,7.71-9.82,6.6-10.92-.64-.65-3.42,1.55-7.8,6.15-3.71,3.9-7.53,7.15-8.4,7.15-2.47,0-11-4.8-14.05-7.9a41.69,41.69,0,0,1-5.2-7.1c-2.39-4.2-2.41-4.39-.79-7.9a30.69,30.69,0,0,1,13.54-13.58c9.75-4.9,13-5.48,28.6-5.14,13.2.29,15.33.6,23.7,3.47Z" transform="translate(-779.12 -312)"/><path d="M1064.62,607c-2.26,1.32-2.2,6.2.1,8.28,4.12,3.73,12.2,1,12.2-4.06,0-4.45-7.5-7-12.3-4.22Z" transform="translate(-779.12 -312)"/><path d="M892.09,595.2c-2.74,3.3,2.67,7.35,5.73,4.3,1.25-1.25,1.35-2,.48-3.4-1.36-2.2-4.73-2.69-6.21-.9Z" transform="translate(-779.12 -312)"/></svg>
