<svg id="js-logo-lang" data-name="Ebene 1" xmlns="http://www.w3.org/2000/svg" viewBox="0 0 1250.92 456.9"><path d="M281.42,193.49c-4.95.16-31.5.74-59,1.28-58.4,1.15-62.86,1.68-78.9,9.53-11.12,5.43-20.79,18.09-23.68,31-3.57,15.93-3.65,154.4-.12,204a202.93,202.93,0,0,0,5.83,38.5c3.5,14.9,9,29.88,13.86,38a45.18,45.18,0,0,1,2.68,5c1.12,3,12.73,17.65,18.43,23.32a155.91,155.91,0,0,0,16.4,13.28c5.8,4.08,11,7.75,11.5,8.19,4.92,3.93,31,19.67,54.7,33,2,1.13,6.8,3.77,10.5,5.79l11.3,6.14c5.06,2.75,26.6,13.89,56.3,29.11,10.9,5.58,20.61,10.15,21.6,10.15,1.95,0,46-22.13,79.1-39.73,12.9-6.86,40.68-22.62,47.8-27.12,2.3-1.45,8.85-5.47,14.45-8.85s11.16-6.91,12.25-7.75,5.6-4,10-7.05a193,193,0,0,0,16.1-12.76q37.9-33.94,43.32-104.74c4.09-53.4,4.08-191.22,0-207.5a45.93,45.93,0,0,0-24.91-30.79c-8.56-4.08-17.2-6.18-31.5-7.68-8.76-.92-193.8-3.41-212-2.85l-16,.52Zm167,13.26c33.6.62,62.8,1.52,65,2s6.5,1.35,9.5,2c11.5,2.33,20.83,8.88,25.33,17.79,5.69,11.22,5.77,12.7,5.82,98.3,0,52.7-.36,83.75-1.2,94.5-.69,8.8-1.18,17.12-1.1,18.5a117.82,117.82,0,0,1-1.37,13c-4.42,30.5-11,49.75-23.33,67.8-5.72,8.4-16.18,19.29-22.85,23.79-3.2,2.15-6,4.13-6.3,4.41-1.9,1.9-47.43,31-48.5,31a25.31,25.31,0,0,0-4.25,2.35c-2.08,1.3-7.75,4.48-12.75,7.15s-10.78,5.82-13,7.09c-17.8,10.22-74,38.41-76.6,38.41-1.21,0-8.1-3-15.3-6.65-28.3-14.36-54.71-28.1-63.6-33.09l-9-5c-8.5-4.73-18.21-10.32-21.5-12.37a43.78,43.78,0,0,0-4.5-2.51c-.83-.36-3.85-2.15-6.75-4s-5.38-3.35-5.55-3.35c-.58,0-31.9-21-36.2-24.3s-16.54-15.7-20.12-20.4c-4.06-5.33-11.48-19.3-14.39-27.1-6.06-16.24-9.25-31-10.83-50.2-2.8-33.83-3.44-51.1-3.87-103.5-.57-71.4.91-101.64,5.49-111.7,4.47-9.82,11.22-15.5,22.22-18.7,2.5-.72,5.84-1.73,7.5-2.26,3-.95,35.9-2.6,61.5-3.08,46.75-.88,168.8-.77,220.5.2Z" transform="translate(328 -192.89)"/><path d="M-14.81,366c-1.75,2.12-3.14,8.6-4.8,22.3-.87,7.18-2.67,19.4-4,27.3-3.09,18-3.1,19-.05,20.33,3.7,1.65,5.14.57,9.07-6.83,4.82-9.1,16.05-24,18.73-24.83,3.18-1,4.33,1.33,5.58,11.43.62,5,1.81,10.33,2.68,12,2,3.9,6.86,6.53,9.44,5.14,2.9-1.57,3-3.14.39-8.14a44.42,44.42,0,0,1-3.44-11c-3.1-18.8-4.1-20.9-9.95-20.9-6.89,0-12.94,5.1-19.47,16.4-1.56,2.7-3,4.47-3.13,3.95s1.24-8.15,3.11-16.85c4.41-20.6,5-25.34,3.34-28.5-1.44-2.8-5.8-3.85-7.48-1.8Z" transform="translate(328 -192.89)"/><path d="M817.32,365.57c-2.36,1.61-3.29,5.52-5.89,24.72-1.49,11-3.56,24.5-4.59,30-2.29,12.1-2.31,12.91-.35,14.9,2.54,2.57,5.33,2,7.23-1.5,3.75-6.9,14.56-22.66,18-26.2,6-6.25,7.53-5,9.07,7.5q1.86,15,7.65,17.66c2.2,1,3.15,1,5.1-.32,3-2,3-2.64-.09-7.94-1.73-3-3-7.5-4.06-14.6-1.61-10.7-3.32-15.32-6-16.38-7-2.74-14.56,2.38-22.37,15.18-1.76,2.9-3.41,5.11-3.63,4.9s1.17-7.6,3.06-16.3c4.69-21.6,5.21-26.66,3.11-29.9-1.63-2.5-4-3.17-6.17-1.72Z" transform="translate(328 -192.89)"/><path d="M42.92,367.79c-2.68,2.68-2.2,6.75,1.1,9.24,2.43,1.82,2.8,1.85,5.6.39,3.13-1.62,4.3-3.43,4.3-6.63,0-4.8-7.23-6.78-11-3Z" transform="translate(328 -192.89)"/><path d="M912.12,367.36c-2.2,1.54-2.93,5.73-1.4,8,3.62,5.43,12.2,2.2,12.2-4.6,0-4.5-6.38-6.53-10.8-3.43Z" transform="translate(328 -192.89)"/><path d="M-288.38,372.21q-1.39,1.38-2.05,12.18c-1.1,18.2-4,32.15-7.93,37.7-4.23,6-10.32,5.54-18.42-1.45-4.9-4.23-8.66-4.85-10.6-1.75-4,6.46,12.5,17.95,24,16.66,12.13-1.35,18.1-11.76,21.81-38.06,1.78-12.6,1.91-23.89.29-25.5s-5.3-1.54-7.1.22Z" transform="translate(328 -192.89)"/><path d="M666.22,373.32c-8.1,1.76-18.1,6.26-18.8,8.47-.8,2.5.45,5,2.5,5a2.5,2.5,0,0,1,2.29,1.3c.58,1.57-1.93,21.3-4.29,33.7-1.3,6.8-1.52,10.17-.8,12.2a5.28,5.28,0,0,0,7.7,2.84c2.11-1.15,2.09-1,4.16-19.54,1.92-17.1,4.73-32.79,6.14-34.18,2.14-2.12,17-4,20.2-2.54,6.7,3,0,12.92-13.3,19.63-5.9,3-7.1,4-7.1,6.09,0,3.15,3.6,4.22,8.9,2.64,7.6-2.26,12.87-.51,14.58,4.86,2.11,6.61-10.28,17-20.28,17-4.3,0-6.73,1.49-7.66,4.7-.49,1.67,0,2.59,1.86,3.84,7.58,5,29.46-6.24,35-17.94,3.51-7.39.79-15-6.71-18.86l-3.8-1.94,6-6.3c5.28-5.5,6-6.81,6-10.3,0-4.5-2.56-8.42-7-10.7-3.61-1.86-17.1-1.84-25.7,0Z" transform="translate(328 -192.89)"/><path d="M-89.78,386.87c-4.7,1.36-12.45,6.94-15,10.82-5,7.57-2.27,13.31,9.73,20.09,4.7,2.66,8.5,5.43,8.5,6.21,0,2.83-6.6,4.92-14.2,4.48-8.4-.48-10.3.32-10.3,4.32,0,4.16,2.8,5.31,11.5,4.75,9.9-.64,19.76-5.19,22.21-10.25,1.59-3.3,1.6-3.7,0-7s-4.82-5.87-13.62-10.64c-5.7-3.1-6.86-4.93-5.31-8.36,1.65-3.66,9.21-6.93,13.91-6,4.1.79,6.3-.64,6.3-4.08,0-4.61-6.1-6.53-13.7-4.32Z" transform="translate(328 -192.89)"/><path d="M875.92,388.34c-7.8,3.64-11.36,6.64-13.47,11.35-3.19,7.11-.13,12.3,10.37,17.55,7.4,3.7,9.62,5.7,8.78,7.95s-8.38,3.88-14.78,3.3c-8.5-.78-12.74,3.26-8.2,7.8,1.41,1.4,3.1,1.62,9.8,1.26,13-.7,23.5-6.67,23.5-13.36,0-4.95-2.6-7.9-10.9-12.37-10.6-5.71-11.76-9.2-4.8-14.4,1.83-1.36,4.4-2,8.7-2.13,7.9-.24,10.28-3.22,6-7.5-2.78-2.79-8.3-2.58-15,.55Z" transform="translate(328 -192.89)"/><path d="M-50.18,388.82C-58.39,393.14-68,407.49-70,418.49c-3,16.1,9.8,24,25.75,15.89,8.5-4.32,13.7-10.72,9.9-12.19-.71-.28-4.4,1.12-8.1,3.06-12.3,6.44-19.64,4.14-18.09-5.66.79-5,5-14,9-19.2,2.9-3.8,6.23-4.64,7.16-1.8,2,6,2.78,7.2,4.86,7.2,3,0,4.5-1.9,4.5-5.8,0-4.7-2.76-10-6.1-11.75-3.52-1.81-4.6-1.74-9,.58Z" transform="translate(328 -192.89)"/><path d="M781.12,389c-12.8,6.33-23.73,30.6-18.62,41.34,2,4.23,7.62,7.42,13.12,7.44,5.3,0,14.18-3.94,18.9-8.45,7.69-7.34,5.1-9.45-5-4.09-7.6,4-14.22,4.78-17.1,1.9-3.63-3.64.47-18,7.59-26.6,4.11-5,6.38-4.8,8.08.6,1.08,3.4,1.85,4.25,4,4.51,6.1.71,6.3-9.52.3-15.51-3.84-3.84-5.5-4-11.3-1.14Z" transform="translate(328 -192.89)"/><path d="M-263.14,391.39c-1.36,1.63-3.73,11.5-6,25-1.08,6.4-1,7.71.52,11.8,1.81,4.8,5.33,7.6,9.56,7.6,3.78,0,9.67-3.8,14.73-9.5l5-5.6.66,4.3c1.61,10.5,4.49,13.57,10.24,10.93,2.9-1.33,3-2.88.45-5.63-3.11-3.32-3.7-13.2-1.51-24.9,1.89-10.1,1.39-12.6-2.54-12.6-2.69,0-4.55,2.9-7.39,11.5s-8,16-14.21,20.4c-7.08,5.07-8.8.1-4.91-14.2,3.81-14,4.18-17.7,1.91-19.35s-4.89-1.66-6.46.25Z" transform="translate(328 -192.89)"/><path d="M-135.88,393A47.19,47.19,0,0,0-156,413.09c-9.94,20.2,4,28.11,23.34,13.26l4.9-3.76-.7,5.4c-1.45,11.2-3.75,18-7.46,22.1-3.47,3.82-3.64,3.88-8.84,3.35-3.58-.38-7.75-1.9-12.85-4.7-6.1-3.36-7.84-3.91-9.05-2.89-2.08,1.75-1.85,2.44,2.38,7.14,4.76,5.28,14.12,9.8,20.32,9.8,9.32,0,18.25-7.6,21.39-18.2.83-2.81,2.39-12.15,3.46-20.75s2.64-17.59,3.48-19.95c1.86-5.2,1.93-8,.26-10.2-3.76-4.89-11.59-5.15-20.49-.7Zm10.6,6c1.83,1.83,1.51,4.4-1.22,9.6-4.61,8.8-12.71,16-18.58,16.42-3.3.26-3.52.09-3.8-2.92a12.87,12.87,0,0,1,1.26-6.2c2.29-4.4,12.06-14.62,15.74-16.45,3.9-1.95,5-2,6.6-.45Z" transform="translate(328 -192.89)"/><path d="M714.81,391.39c-1.31,1.58-6.83,26.6-6.89,31.2,0,4.1,2.92,9.77,6.1,11.63,5.84,3.42,13.9-.13,20.93-9.23l3.47-4.5,1.27,6.3c1.83,9.1,5,11.84,10.33,9,2.47-1.31,2.41-2.39-.31-6.09-1.94-2.63-2.29-4.35-2.29-11.25a97.28,97.28,0,0,1,1.4-15.35c1.52-7.8.79-10.3-3-10.3-2.51,0-4.62,3.4-7,11.2-2.41,8-9.57,17.94-15.24,21.15-3.8,2.15-3.8,2.15-5.33.15-2.13-2.8-1.08-8.8,5.19-29.7.63-2.1-2.86-5.8-5.46-5.8a4.94,4.94,0,0,0-3.21,1.6Z" transform="translate(328 -192.89)"/><path d="M37,392.19c-1.16,1.37-3.11,12.3-5.21,29.2-.91,7.3-.88,9.84.15,12.3,1.54,3.7,4.34,4.79,7.3,2.84,2-1.33,2.21-2.34,2.35-12.34a76.82,76.82,0,0,1,2.25-18.8c2.42-9.1,2.59-11.71.9-13.4s-6.3-1.5-7.74.2Z" transform="translate(328 -192.89)"/><path d="M906,392.19c-1.28,1.54-6,29.6-6.06,35.7,0,7.7,3.74,11.62,8.27,8.64,2-1.33,2.21-2.24,2.25-11.84a81,81,0,0,1,2.45-20.2c1.79-7.3,2.13-10.24,1.33-11.5-1.38-2.2-6.65-2.72-8.24-.8Z" transform="translate(328 -192.89)"/><path d="M-210.78,392.57c-2.11,1.35-3.3,6.22-3.3,13.52a119,119,0,0,1-1.25,15.2,57.48,57.48,0,0,0-.92,10.3c.36,2.5,4.12,4.82,6.37,3.94.78-.3,3.25-4.24,5.54-8.84,5.18-10.4,14-22.28,16.86-22.7,3.17-.48,4.31,1.7,5.46,10.4,2,15.1,3.88,18.4,10.44,18.4,4.5,0,9.5-3.43,9.5-6.5,0-1.61-.8-1.85-5.1-1.55-3.25.23-3.63-.65-5.41-12.65-1.74-11.8-3.72-16.11-8.29-18-3.08-1.3-4-1.28-7.7.13-5,1.91-8,5-13,13.1-2.21,3.6-3.48,5-3.16,3.5,1.45-6.8,1.81-14.82.75-16.8-1.16-2.2-4.48-2.89-6.78-1.42Z" transform="translate(328 -192.89)"/><path d="M358.12,266.76c-8.19,1.21-7.69-4.17-6.37,68.73.64,35.6,1.17,76.56,1.17,90.9,0,22.5.27,27.12,1.94,33.5,2.56,9.8,2.84,10.46,7.22,17,5.89,8.8,14.24,14.74,23,16.4,9,1.7,10.34-2.48,2.6-8.14-8.9-6.51-12.3-11.46-16-23.36l-2.67-8.5-1-54c-.58-29.7-1.05-68.27-1.05-85.7,0-30.3.09-31.75,1.9-32.72,2.89-1.55,25.3-1.26,35.1.45,19.4,3.39,29,9.07,35.27,20.77,2,3.71,2.23,5.6,2.23,16.2,0,11.8-.06,12.12-3.7,19.55a44,44,0,0,1-9.5,13.07c-5.2,5-17.07,12.8-22,14.53-5.7,2-10.51,4.63-11.05,6.05-.93,2.46,1.85,3.78,10.95,5.2,11.6,1.82,18.08,3.71,26.8,7.85,18.11,8.6,28.28,20.15,34.1,38.75,1.82,5.82,1.47,26.6-.58,34.4a84.26,84.26,0,0,1-8,19.1c-3.24,5.61-13.72,14.81-20.82,18.27-9.9,4.84-11.73,5.5-20,7.21a70.88,70.88,0,0,1-38.2-2.6,108,108,0,0,1-13.5-5.77c-12-5.8-37.73-21.19-39.16-23.41-.82-1.28,0-6.9,1.76-12,1-3,1.31-22.4,1.35-96.1.05-85-.08-92.42-1.6-93.7-1.35-1.15-10.85-1.45-51.75-1.65-27.6-.14-53.24.08-57.1.5l-7,.75-.3,4.4a30,30,0,0,0,.25,6.75l.55,2.35h50c27.5,0,50.2.4,50.51.9,1.05,1.7.69,171.6-.38,174.4-1.37,3.59-3.68,4.33-7.48,2.39a135.42,135.42,0,0,0-19.1-8l-9.5-2.85c-3.14-.95-10.1-1.35-23-1.35-16.9,0-19.06.2-25,2.37C217,454,208.57,460,202.83,468.09c-6.23,8.8-7.28,15.62-3.67,24,5,11.62,16.66,21,31.36,25.34,6.9,2,33.77,3.05,39.4,1.51,1.93-.53,5.7-1.46,8.4-2.09,14.1-3.25,32.15-16.31,38.25-27.66,2.42-4.51,4.35-4.34,12.85,1.11,3.9,2.5,7.67,4.8,8.5,5.19s4.6,2.53,8.5,4.83c8.7,5.14,23.86,12.47,25.8,12.47a3.3,3.3,0,0,1,2.1.7c.39.38,3.7,1.49,7.4,2.47,12,3.17,38.4,2,48.7-2.07,1.1-.44,3.8-1.37,6-2.06,19-6,35-19.48,42.71-36,5-10.76,6.81-18.4,7.49-31.5.75-14.3-1-23.26-6.74-35.1-8.54-17.55-21-29.49-39.46-37.94l-7.8-3.56,2.9-3.2a33.9,33.9,0,0,1,4-3.92c2.27-1.47,9.86-12.08,12.22-17.08,4-8.55,5.18-14.5,5.18-26.7,0-9-.43-12.68-2-16.9-4-11-11.23-18.9-22.53-24.64-7.82-4-10.6-4.79-25-7.36-10.2-1.82-40-2.5-49.3-1.13Zm-78.5,197.88c12.1,4.14,23.88,9.72,24.62,11.65.85,2.18-.19,4.4-4.74,10.1a55.78,55.78,0,0,1-16,13c-8.62,4.46-25.7,7.77-35.3,6.84-5.7-.55-6.3-.82-6.3-2.9a3.12,3.12,0,0,1,1.5-2.88c2.3-.87,7.71-9.82,6.6-10.92-.64-.65-3.42,1.55-7.8,6.15-3.71,3.9-7.53,7.15-8.4,7.15-2.47,0-11-4.8-14-7.9a41.69,41.69,0,0,1-5.2-7.1c-2.39-4.2-2.41-4.39-.79-7.9a30.69,30.69,0,0,1,13.54-13.58c9.75-4.9,13-5.48,28.6-5.14,13.2.29,15.33.6,23.7,3.47Z" transform="translate(328 -192.89)"/><path d="M402.62,487.87c-2.26,1.32-2.2,6.2.1,8.28,4.12,3.73,12.2,1,12.2-4.06,0-4.45-7.5-7-12.3-4.22Z" transform="translate(328 -192.89)"/><path d="M230.09,476.09c-2.74,3.3,2.67,7.35,5.73,4.3,1.25-1.25,1.35-2,.48-3.4-1.36-2.2-4.73-2.69-6.21-.9Z" transform="translate(328 -192.89)"/></svg>
