<?xml version="1.0" standalone="no"?>
<!DOCTYPE svg PUBLIC "-//W3C//DTD SVG 20010904//EN"
 "http://www.w3.org/TR/2001/REC-SVG-20010904/DTD/svg10.dtd">
<svg version="1.0" xmlns="http://www.w3.org/2000/svg"
 width="914.000000pt" height="914.000000pt" viewBox="0 0 914.000000 914.000000"
 preserveAspectRatio="xMidYMid meet">
<metadata>
Created by potrace 1.14, written by Peter Selinger 2001-2017
</metadata>
<g transform="translate(0.000000,914.000000) scale(0.100000,-0.100000)"
fill="#000000" stroke="none">
<path d="M3479 9136 c-5 -5 -410 -16 -1209 -31 -714 -14 -948 -22 -1140 -40
-92 -8 -242 -33 -280 -47 -8 -3 -44 -16 -80 -28 -60 -21 -198 -84 -245 -113
-58 -36 -151 -119 -215 -193 -101 -118 -194 -322 -206 -454 -31 -336 -39 -719
-38 -1825 0 -860 3 -1110 19 -1620 5 -175 14 -384 20 -470 3 -38 7 -105 10
-149 6 -107 17 -213 30 -291 3 -16 7 -43 9 -60 15 -133 86 -438 148 -640 37
-121 119 -335 157 -407 94 -181 172 -312 201 -338 3 -3 21 -25 40 -50 19 -25
39 -50 45 -57 5 -7 15 -18 20 -25 48 -63 142 -164 206 -224 42 -38 219 -180
270 -216 13 -9 92 -65 174 -123 134 -96 295 -201 425 -279 68 -41 83 -50 110
-67 14 -9 41 -26 60 -36 19 -11 85 -50 147 -87 61 -36 116 -66 122 -66 5 0 11
-4 13 -8 3 -8 269 -160 503 -287 39 -21 95 -52 125 -68 88 -49 169 -92 260
-139 47 -24 182 -94 300 -155 118 -61 278 -143 355 -183 283 -146 682 -344
697 -345 3 0 10 -3 14 -7 13 -14 31 -9 116 30 89 40 853 422 1033 517 61 31
166 87 235 122 69 36 154 81 190 101 36 19 88 47 115 62 79 42 186 101 238
132 26 15 52 28 57 28 4 0 10 3 12 8 2 4 26 18 53 31 28 14 57 30 65 37 8 6
42 26 75 44 33 18 74 41 91 51 66 36 412 245 541 325 74 46 136 84 139 84 4 0
154 101 171 115 6 5 35 26 63 45 150 103 303 220 405 310 90 79 221 220 300
322 64 82 215 331 215 353 0 8 5 15 10 15 6 0 10 4 10 9 0 5 16 43 35 84 19
41 35 80 35 86 0 6 5 11 10 11 6 0 9 3 8 8 -2 4 14 52 34 107 35 94 94 285
103 330 2 11 4 20 5 20 1 0 3 9 5 20 2 11 13 63 25 115 12 52 23 109 25 125 3
17 7 46 11 65 3 19 7 46 9 60 9 73 15 118 20 140 2 14 7 54 10 90 3 36 8 83
11 105 2 22 6 83 9 135 2 52 4 95 5 95 4 0 17 313 25 585 4 118 9 265 11 325
8 168 12 2069 5 2158 -3 42 -2 77 2 77 5 0 5 5 2 10 -3 6 -8 72 -10 148 -10
309 -23 528 -40 627 -44 268 -258 543 -510 655 -27 12 -59 26 -70 31 -65 29
-225 75 -295 85 -19 2 -46 7 -60 9 -14 3 -45 7 -70 11 -25 3 -56 7 -70 10 -39
6 -245 15 -485 19 -121 2 -220 4 -220 5 0 1 -135 3 -300 5 -165 2 -471 7 -680
10 -809 12 -1008 15 -1886 20 -498 3 -908 3 -910 1z m2926 -268 c212 -2 343
-7 347 -13 5 -6 8 -5 8 3 0 7 4 11 9 7 6 -3 131 -8 278 -10 267 -5 369 -8 703
-21 197 -7 209 -8 265 -19 67 -13 78 -15 125 -25 25 -6 56 -13 70 -15 14 -3
34 -9 45 -14 11 -5 43 -17 70 -26 28 -10 57 -24 66 -31 8 -8 20 -14 26 -14 16
0 136 -94 172 -136 19 -21 47 -58 62 -83 29 -45 87 -177 95 -215 41 -205 45
-352 45 -1806 -1 -1118 -4 -1514 -16 -1760 -6 -122 -8 -151 -20 -335 -6 -91
-15 -248 -17 -275 -1 -20 -38 -269 -44 -295 -2 -11 -6 -36 -8 -55 -2 -19 -7
-42 -10 -50 -3 -8 -7 -31 -10 -51 -3 -20 -8 -42 -10 -50 -3 -8 -7 -30 -10 -50
-3 -20 -10 -48 -15 -63 -6 -14 -8 -26 -5 -26 2 0 0 -8 -5 -17 -5 -10 -11 -31
-14 -48 -5 -32 -52 -186 -67 -220 -9 -21 -22 -57 -25 -65 -6 -23 -22 -64 -42
-110 -50 -111 -57 -125 -63 -130 -3 -3 -11 -18 -18 -35 -15 -34 -93 -167 -103
-175 -3 -3 -12 -16 -19 -30 -13 -25 -82 -118 -130 -175 -42 -51 -264 -270
-290 -288 -14 -9 -87 -60 -162 -114 -76 -54 -190 -132 -254 -173 -64 -41 -122
-80 -129 -87 -7 -7 -15 -9 -19 -6 -3 4 -6 1 -6 -5 0 -7 -6 -12 -13 -12 -7 0
-22 -8 -33 -18 -10 -10 -44 -32 -74 -50 -30 -18 -98 -60 -150 -94 -180 -116
-302 -188 -316 -188 -8 0 -14 -4 -14 -9 0 -5 -10 -13 -22 -17 -13 -3 -30 -12
-38 -19 -8 -8 -39 -26 -69 -42 -29 -15 -60 -32 -70 -38 -16 -10 -139 -77 -291
-158 -41 -22 -77 -43 -80 -46 -3 -3 -18 -13 -35 -21 -16 -8 -75 -39 -130 -69
-281 -154 -1168 -599 -1307 -656 l-68 -28 -47 18 c-41 15 -222 98 -303 139
-31 16 -300 155 -480 248 -133 69 -145 75 -185 95 -11 5 -63 32 -115 60 -52
28 -133 70 -180 94 -47 24 -87 46 -90 49 -3 3 -48 27 -100 54 -52 27 -96 53
-98 58 -2 4 -11 8 -21 8 -9 0 -21 4 -26 9 -6 5 -111 66 -234 136 -123 70 -240
137 -260 149 -20 13 -39 23 -42 22 -4 -1 -15 6 -25 14 -11 9 -39 26 -64 40
-25 13 -110 63 -189 112 -78 48 -147 88 -151 88 -5 0 -10 3 -12 8 -2 4 -127
90 -278 191 -151 101 -276 188 -278 193 -2 4 -8 8 -14 8 -23 0 -260 223 -398
376 -92 101 -202 289 -315 538 -41 91 -130 365 -150 466 -2 8 -8 33 -13 55
-27 99 -60 315 -77 490 -3 33 -8 87 -11 120 -3 33 -8 89 -10 125 -2 36 -6 94
-9 130 -10 145 -22 349 -31 539 -12 278 -18 798 -19 1596 0 933 6 1239 30
1450 3 28 8 73 11 102 14 152 40 255 84 343 35 70 95 149 140 186 19 16 37 32
40 35 10 14 107 66 160 87 99 38 254 82 302 84 27 2 48 7 48 12 0 5 6 3 13 -3
8 -6 16 -9 19 -6 4 5 44 8 248 20 140 8 411 18 522 19 65 1 118 3 118 6 0 3
13 5 29 5 16 0 27 -4 23 -9 -3 -5 1 -5 9 -1 7 5 164 11 349 13 184 2 336 4
337 5 3 3 3163 -1 3578 -5z"/>
<path d="M5017 7674 c-1 -1 -40 -4 -87 -8 -166 -12 -174 -18 -187 -144 -8 -80
-8 -543 2 -1017 12 -641 24 -1454 29 -2141 2 -187 6 -346 10 -352 4 -7 2 -12
-4 -12 -7 0 -8 -6 -2 -17 5 -10 10 -38 11 -63 2 -25 5 -48 7 -51 2 -3 6 -21 9
-40 8 -42 10 -50 18 -69 4 -8 8 -26 11 -40 6 -38 35 -118 56 -155 10 -18 24
-43 32 -56 7 -13 16 -26 19 -29 3 -3 20 -26 37 -52 74 -108 205 -214 326 -262
95 -38 142 -46 233 -37 18 2 35 39 28 61 -7 22 -55 72 -105 110 -19 14 -39 31
-47 38 -7 7 -13 11 -13 8 0 -8 -61 56 -108 113 -55 68 -91 145 -149 320 -54
161 -47 48 -67 1181 -18 979 -25 2109 -16 2300 4 87 15 116 48 126 30 9 512
13 512 5 0 -4 24 -7 53 -7 52 -1 111 -9 157 -21 14 -3 28 -6 33 -5 4 1 40 -7
80 -18 39 -11 79 -22 87 -25 135 -36 266 -110 354 -200 46 -47 126 -167 126
-189 0 -8 4 -17 9 -21 15 -9 25 -129 24 -296 -2 -207 -6 -232 -68 -359 -69
-141 -167 -257 -310 -365 -77 -58 -280 -185 -295 -185 -4 0 -23 -6 -41 -14
-19 -8 -37 -15 -41 -15 -15 -2 -139 -71 -154 -85 -24 -25 -14 -76 15 -76 10 0
21 -3 25 -7 3 -4 12 -8 19 -9 7 -1 30 -6 52 -12 22 -6 60 -14 85 -17 440 -62
820 -260 1026 -535 27 -36 55 -74 61 -85 34 -55 104 -210 128 -285 27 -81 28
-94 29 -295 1 -188 -5 -308 -19 -369 -3 -12 -7 -32 -9 -46 -10 -60 -67 -203
-128 -325 -50 -100 -133 -198 -242 -287 -12 -10 -26 -22 -32 -27 -57 -47 -249
-161 -287 -169 -4 -1 -20 -8 -35 -15 -28 -15 -113 -44 -150 -52 -12 -3 -31 -7
-42 -10 -51 -13 -97 -21 -190 -34 -62 -9 -294 -7 -355 4 -22 3 -51 8 -64 10
-68 12 -131 29 -131 37 0 5 -4 7 -10 3 -21 -13 -340 124 -515 222 -80 45 -199
113 -215 123 -8 5 -58 35 -110 66 -121 72 -261 165 -278 184 -16 19 -9 138 12
202 22 66 26 113 33 373 8 315 8 3135 0 3290 -7 127 -12 164 -24 176 -11 11
-53 17 -163 25 -149 10 -1853 11 -1970 1 -58 -4 -116 -8 -130 -8 -49 1 -56
-11 -60 -119 -1 -50 7 -136 14 -148 4 -7 64 -10 155 -10 82 0 154 -2 160 -6 6
-4 11 -4 11 1 0 9 441 9 465 -1 8 -3 15 -2 15 2 0 7 108 7 760 -2 367 -5 435
-8 447 -20 4 -3 15 -829 13 -981 0 -5 -1 -95 -3 -200 -1 -104 1 -196 6 -202 5
-7 6 -13 1 -13 -11 0 -11 -91 0 -108 4 -7 4 -12 -1 -12 -7 0 -7 -93 -3 -430 0
-23 -10 -1098 -13 -1327 -1 -112 -6 -203 -10 -203 -5 0 -6 -4 -3 -9 8 -12 -40
-61 -61 -62 -32 -2 -46 2 -118 36 -38 17 -99 44 -135 60 -36 15 -77 34 -92 42
-16 8 -28 11 -28 7 0 -3 -7 -1 -15 6 -8 7 -15 9 -15 5 0 -4 -7 -2 -15 5 -8 7
-15 9 -15 5 0 -4 -6 -3 -12 2 -10 8 -77 30 -118 39 -3 0 -12 3 -20 6 -101 39
-149 43 -530 43 -385 0 -405 -2 -531 -53 -113 -46 -160 -69 -244 -122 -161
-100 -310 -287 -350 -441 -14 -52 -10 -197 5 -216 2 -2 3 -6 5 -10 1 -5 7 -21
13 -36 7 -16 12 -33 12 -38 0 -5 5 -9 10 -9 6 0 10 -9 10 -20 0 -11 3 -20 8
-20 4 0 16 -17 27 -37 17 -32 164 -188 206 -218 40 -29 150 -94 192 -114 182
-84 339 -106 732 -105 150 1 204 5 255 19 36 10 72 19 80 19 9 1 20 5 26 9 6
3 26 9 45 12 122 20 360 150 515 281 96 82 146 136 210 232 31 45 64 86 73 91
31 16 76 0 176 -61 147 -90 406 -238 416 -238 5 0 9 -3 9 -7 0 -5 10 -13 23
-19 12 -6 81 -40 152 -76 72 -36 147 -73 168 -82 20 -9 53 -23 73 -32 20 -9
38 -13 41 -10 3 3 22 -3 42 -13 67 -34 200 -70 281 -75 14 -1 30 -5 35 -8 23
-12 510 1 585 17 14 2 41 7 60 10 47 8 151 36 173 47 10 5 26 11 35 13 76 15
292 107 387 165 28 16 57 33 65 37 14 7 41 28 65 50 8 7 16 13 19 13 23 0 204
184 273 277 117 157 222 412 249 603 3 19 7 49 10 65 3 17 7 118 10 225 6 278
-19 401 -125 625 -60 126 -117 218 -196 320 -67 86 -196 215 -214 215 -6 0
-11 4 -11 9 0 4 -28 28 -62 52 -35 23 -66 47 -69 52 -3 5 -10 9 -15 9 -9 1
-38 17 -84 47 -14 9 -87 46 -163 81 l-137 64 27 30 c16 16 56 57 91 90 35 34
80 84 100 111 20 28 39 52 42 55 13 11 110 170 110 179 0 6 5 11 12 11 6 0 8
3 5 7 -4 3 -3 11 1 17 34 45 86 243 92 351 4 79 4 265 0 335 -8 132 -83 312
-174 419 -147 171 -397 314 -626 356 -36 6 -100 17 -105 16 -2 0 -19 4 -36 9
-29 9 -51 12 -174 25 -107 12 -707 28 -718 19z m-2007 -3908 c110 -9 190 -24
270 -54 8 -3 20 -6 25 -7 15 -4 125 -45 160 -59 17 -7 46 -19 65 -26 70 -27
227 -110 253 -134 20 -18 25 -31 21 -52 -6 -33 -44 -104 -56 -104 -4 0 -8 -4
-8 -10 0 -25 -167 -192 -229 -230 -23 -14 -54 -35 -69 -48 -48 -39 -261 -117
-372 -136 -19 -3 -46 -8 -60 -11 -78 -16 -128 -20 -250 -19 -121 1 -186 7
-199 20 -2 2 -6 15 -7 29 -2 19 10 39 50 79 28 30 63 76 76 102 14 27 27 51
30 54 8 8 12 50 5 50 -18 0 -93 -62 -180 -149 -55 -56 -105 -101 -112 -101 -6
0 -13 -6 -16 -12 -11 -32 -210 70 -292 150 -66 64 -147 199 -141 237 7 49 42
121 76 155 3 3 20 23 39 45 39 46 128 115 148 115 7 0 13 4 13 8 0 25 213 100
307 108 43 4 79 7 80 8 4 4 304 -3 373 -8z"/>
<path d="M2331 3482 c-43 -34 -33 -77 23 -106 26 -13 33 -13 57 0 41 21 51 43
31 76 -25 43 -78 58 -111 30z"/>
<path d="M5849 3265 c-3 -2 -16 -6 -29 -8 -45 -9 -61 -19 -76 -48 -31 -60 15
-156 78 -163 13 -1 28 -5 33 -8 20 -12 104 22 129 53 56 67 16 147 -83 164
-19 3 -37 8 -41 10 -4 3 -9 3 -11 0z"/>
</g>
</svg>
